<svg width="31" height="31" viewBox="0 0 31 31" fill="none" xmlns="http://www.w3.org/2000/svg">
<ellipse cx="15.5" cy="15.5" rx="15.5" ry="15.5" fill="#15A52B"/>
<path d="M29.2286 15.4999C29.2286 23.082 23.0821 29.2285 15.5001 29.2285C7.91797 29.2285 1.77148 23.082 1.77148 15.4999C1.77148 7.91785 7.91797 1.77136 15.5001 1.77136C23.0821 1.77137 29.2286 7.91786 29.2286 15.4999Z" fill="url(#paint0_linear_1168_895)"/>
<path d="M29.2286 15.4999C29.2286 23.082 23.0821 29.2285 15.5001 29.2285C7.91797 29.2285 1.77148 23.082 1.77148 15.4999C1.77148 7.91785 7.91797 1.77136 15.5001 1.77136C23.0821 1.77137 29.2286 7.91786 29.2286 15.4999Z" stroke="black"/>
<defs>
<linearGradient id="paint0_linear_1168_895" x1="3.03244" y1="6.06513" x2="31.3368" y2="24.2608" gradientUnits="userSpaceOnUse">
<stop offset="0.133041" stop-color="#FF2A2A"/>
<stop offset="0.497631" stop-color="#F7ED00"/>
<stop offset="0.940347" stop-color="#1E742B"/>
</linearGradient>
</defs>
</svg>
