<svg width="27" height="18" viewBox="0 0 27 18" fill="#ccc" xmlns="http://www.w3.org/2000/svg">
    <g opacity="0.8">
        <path d="M9.03467 9.25834C9.03467 11.6977 10.9917 13.6739 13.4044 13.6739C15.8171 13.6739 17.7741 11.6977 17.7741 9.25834C17.7741 6.81902 15.8171 4.84277 13.4044 4.84277C10.9917 4.84277 9.03467 6.81902 9.03467 9.25834Z" fill="#CCCCCC"/>
        <path d="M18.5955 4.49056C19.9237 5.96785 20.5782 7.95388 20.3889 9.93991C20.2702 11.202 19.8178 12.4053 19.0831 13.4261L20.7386 14.6457C21.6883 13.3315 22.2754 11.7727 22.4294 10.1421C22.6732 7.57559 21.8295 5.00908 20.113 3.10132L18.5955 4.49382V4.49056Z" fill="#CCCCCC"/>
        <path d="M21.8102 1.53606C23.963 3.92973 25.0217 7.1452 24.7137 10.3639C24.518 12.4119 23.7833 14.3686 22.5898 16.022L24.2421 17.2417C25.6538 15.2882 26.52 12.9826 26.751 10.5629C27.1168 6.76691 25.8655 2.97095 23.3245 0.143555L21.8102 1.53606Z" fill="#CCCCCC"/>
        <path d="M4.37305 9.30732C4.51421 11.2575 5.24571 13.0739 6.49375 14.561L8.0562 13.2239C7.0905 12.076 6.52262 10.6672 6.41354 9.16057C6.27879 7.27237 6.88196 5.44614 8.10433 4.0145L6.55471 2.66113C4.96979 4.51019 4.19659 6.87125 4.36984 9.31058" fill="#CCCCCC"/>
        <path d="M0.0351155 9.6236C0.227615 12.3075 1.19011 14.8447 2.81994 16.9579L4.43694 15.686C3.05736 13.8957 2.24244 11.7466 2.07561 9.47358C1.86386 6.50596 2.78144 3.61007 4.66152 1.32076L3.08623 0C0.86928 2.70348 -0.215134 6.12114 0.0351155 9.6236Z" fill="#CCCCCC"/>
    </g>
</svg>
