<svg width="26" height="12" viewBox="0 0 26 12" fill="#ccc" xmlns="http://www.w3.org/2000/svg">
    <path d="M20.6955 0.0253333V0H5.56191V0.00666667C2.47182 0.146667 0 2.78133 0 6C0 9.21867 2.61151 12 5.82061 12C9.0297 12 11.6412 9.308 11.6412 6C11.6412 4.768 11.279 3.62133 10.6582 2.66667H15.3418C14.721 3.62133 14.3588 4.768 14.3588 6C14.3588 9.308 16.9703 12 20.1794 12C23.3885 12 26 9.308 26 6C26 2.872 23.6653 0.296 20.6968 0.0253333H20.6955ZM9.05428 6C9.05428 7.83867 7.6043 9.33333 5.82061 9.33333C4.03691 9.33333 2.58694 7.83867 2.58694 6C2.58694 4.16133 4.03691 2.66667 5.82061 2.66667C7.6043 2.66667 9.05428 4.16133 9.05428 6ZM20.1781 9.33333C18.3944 9.33333 16.9444 7.83867 16.9444 6C16.9444 4.16133 18.3944 2.66667 20.1781 2.66667C21.9618 2.66667 23.4118 4.16133 23.4118 6C23.4118 7.83867 21.9618 9.33333 20.1781 9.33333Z" fill="#CCCCCC"/>
</svg>
